<?xml version="1.0" encoding="utf-8"?>
<!-- Generator: Adobe Illustrator 16.0.0, SVG Export Plug-In . SVG Version: 6.00 Build 0)  -->
<!DOCTYPE svg PUBLIC "-//W3C//DTD SVG 1.1//EN" "http://www.w3.org/Graphics/SVG/1.1/DTD/svg11.dtd">
<svg version="1.1" id="Layer_1" xmlns="http://www.w3.org/2000/svg" xmlns:xlink="http://www.w3.org/1999/xlink" x="0px" y="0px"
	 width="71.562px" height="46.553px" viewBox="0 -0.087 71.562 46.553" enable-background="new 0 -0.087 71.562 46.553"
	 xml:space="preserve">
<g>
	<g>
		<circle fill="#E6E6E6" cx="35.829" cy="10.535" r="10.052"/>
		<path fill="#C7C6C6" d="M35.829,21.089c-5.82,0-10.555-4.733-10.555-10.555S30.008-0.019,35.829-0.019s10.555,4.734,10.555,10.555
			S41.648,21.089,35.829,21.089L35.829,21.089z M35.829,0.986c-5.265,0-9.55,4.284-9.55,9.55c0,5.265,4.285,9.55,9.55,9.55
			c5.266,0,9.55-4.285,9.55-9.55C45.379,5.27,41.095,0.986,35.829,0.986L35.829,0.986z"/>
	</g>
	
		<linearGradient id="SVGID_1_" gradientUnits="userSpaceOnUse" x1="-13.1694" y1="-707.4734" x2="-13.1694" y2="-690.637" gradientTransform="matrix(1 0 0 1 48.9971 709.457)">
		<stop  offset="0" style="stop-color:#FDFEFF"/>
		<stop  offset="0.9104" style="stop-color:#FDFEFF"/>
		<stop  offset="1" style="stop-color:#FDFEFF"/>
	</linearGradient>
	<circle fill="url(#SVGID_1_)" cx="35.828" cy="10.534" r="8.377"/>
	<polygon fill="#505050" stroke="#F3F3F3" stroke-width="0.25" points="35.664,8.689 31.743,8.689 31.743,12.597 35.664,12.597 
		35.664,15.115 38.376,12.875 41.084,10.634 38.376,8.395 35.664,6.152 	"/>
	<g opacity="0.32" enable-background="new    ">
		<g>
			<g>
				<defs>
					<circle id="SVGID_2_" cx="35.767" cy="10.55" r="9.547"/>
				</defs>
				<clipPath id="SVGID_3_">
					<use xlink:href="#SVGID_2_"  overflow="visible"/>
				</clipPath>
				
					<linearGradient id="SVGID_4_" gradientUnits="userSpaceOnUse" x1="-14.5425" y1="-709.637" x2="-14.5425" y2="-690.7864" gradientTransform="matrix(1 0 0 1 48.9971 709.457)">
					<stop  offset="0" style="stop-color:#FFFFFF"/>
					<stop  offset="1" style="stop-color:#E6E6E6"/>
				</linearGradient>
				<path clip-path="url(#SVGID_3_)" fill="url(#SVGID_4_)" d="M21.328,7.441c0,0,1.67,4.175,9.189,4.175
					c7.518,0,8.95-5.13,17.065-5.01c0,0-0.954-8.354-12.53-7.996C23.477-1.034,21.328,6.962,21.328,7.441z"/>
			</g>
		</g>
	</g>
</g>
<g>
	<g>
		<circle fill="#E6E6E6" cx="60.96" cy="10.614" r="10.052"/>
		<path fill="#C7C6C6" d="M60.96,21.168c-5.82,0-10.556-4.734-10.556-10.555S55.139,0.059,60.96,0.059
			c5.819,0,10.555,4.734,10.555,10.555S66.779,21.168,60.96,21.168L60.96,21.168z M60.96,1.065c-5.265,0-9.55,4.284-9.55,9.55
			c0,5.265,4.285,9.55,9.55,9.55c5.267,0,9.55-4.285,9.55-9.55C70.509,5.347,66.227,1.065,60.96,1.065L60.96,1.065z"/>
	</g>
	
		<linearGradient id="SVGID_5_" gradientUnits="userSpaceOnUse" x1="11.9614" y1="-707.3938" x2="11.9613" y2="-690.5574" gradientTransform="matrix(1 0 0 1 48.9971 709.457)">
		<stop  offset="0" style="stop-color:#FDFEFF"/>
		<stop  offset="0.9104" style="stop-color:#FDFEFF"/>
		<stop  offset="1" style="stop-color:#FDFEFF"/>
	</linearGradient>
	<circle fill="url(#SVGID_5_)" cx="60.959" cy="10.614" r="8.377"/>
	<polygon fill="#505050" stroke="#F3F3F3" stroke-width="0.25" points="61.384,12.656 65.305,12.656 65.305,8.747 61.384,8.747 
		61.384,6.231 58.672,8.47 55.963,10.71 58.672,12.952 61.384,15.193 	"/>
	<g opacity="0.32" enable-background="new    ">
		<g>
			<g>
				<defs>
					<circle id="SVGID_6_" cx="60.898" cy="10.628" r="9.547"/>
				</defs>
				<clipPath id="SVGID_7_">
					<use xlink:href="#SVGID_6_"  overflow="visible"/>
				</clipPath>
				
					<linearGradient id="SVGID_8_" gradientUnits="userSpaceOnUse" x1="10.5884" y1="-709.5579" x2="10.5884" y2="-690.7057" gradientTransform="matrix(1 0 0 1 48.9971 709.457)">
					<stop  offset="0" style="stop-color:#FFFFFF"/>
					<stop  offset="1" style="stop-color:#E6E6E6"/>
				</linearGradient>
				<path clip-path="url(#SVGID_7_)" fill="url(#SVGID_8_)" d="M46.459,7.519c0,0,1.671,4.175,9.189,4.175
					c7.518,0,8.949-5.131,17.064-5.01c0,0-0.954-8.354-12.529-7.996C48.607-0.956,46.459,7.041,46.459,7.519z"/>
			</g>
		</g>
	</g>
</g>
<g>
	<g>
		<circle fill="#E6E6E6" cx="10.698" cy="10.6" r="10.052"/>
		<path fill="#C7C6C6" d="M10.698,21.156c-5.82,0-10.555-4.735-10.555-10.555c0-5.82,4.735-10.556,10.555-10.556
			c5.82,0,10.555,4.734,10.555,10.556C21.253,16.421,16.517,21.156,10.698,21.156L10.698,21.156z M10.698,1.05
			c-5.265,0-9.55,4.284-9.55,9.551c0,5.266,4.285,9.55,9.55,9.55c5.266,0,9.55-4.284,9.55-9.55
			C20.248,5.334,15.964,1.05,10.698,1.05L10.698,1.05z"/>
	</g>
	
		<linearGradient id="SVGID_9_" gradientUnits="userSpaceOnUse" x1="-38.3003" y1="-707.4084" x2="-38.3003" y2="-690.5701" gradientTransform="matrix(1 0 0 1 48.9971 709.457)">
		<stop  offset="0" style="stop-color:#FDFEFF"/>
		<stop  offset="0.9104" style="stop-color:#FDFEFF"/>
		<stop  offset="1" style="stop-color:#FDFEFF"/>
	</linearGradient>
	<circle fill="url(#SVGID_9_)" cx="10.697" cy="10.601" r="8.377"/>
	<g>
		<path fill="#505050" stroke="#F3F3F3" stroke-width="0.25" d="M15.427,14.595h-2.966l-1.546-2.336l-1.591,2.336H6.416l2.986-4.057
			L6.466,6.474h2.966l1.519,2.292l1.526-2.292h2.914l-2.943,4L15.427,14.595z"/>
	</g>
	<g opacity="0.32" enable-background="new    ">
		<g>
			<g>
				<defs>
					<circle id="SVGID_10_" cx="10.636" cy="10.615" r="9.546"/>
				</defs>
				<clipPath id="SVGID_11_">
					<use xlink:href="#SVGID_10_"  overflow="visible"/>
				</clipPath>
				
					<linearGradient id="SVGID_12_" gradientUnits="userSpaceOnUse" x1="-39.6743" y1="-709.572" x2="-39.6743" y2="-690.7185" gradientTransform="matrix(1 0 0 1 48.9971 709.457)">
					<stop  offset="0" style="stop-color:#FFFFFF"/>
					<stop  offset="1" style="stop-color:#E6E6E6"/>
				</linearGradient>
				<path clip-path="url(#SVGID_11_)" fill="url(#SVGID_12_)" d="M-3.804,7.503c0,0,1.671,4.177,9.189,4.177
					s8.95-5.132,17.065-5.011c0,0-0.954-8.354-12.53-7.996C-1.655-0.969-3.804,7.028-3.804,7.503z"/>
			</g>
		</g>
	</g>
</g>
<g>
	<g>
		<circle fill="#E6E6E6" cx="35.829" cy="35.732" r="10.053"/>
		<path fill="#C7C6C6" d="M35.829,46.287c-5.82,0-10.555-4.734-10.555-10.555s4.734-10.555,10.555-10.555
			s10.555,4.734,10.555,10.555S41.648,46.287,35.829,46.287L35.829,46.287z M35.829,26.183c-5.265,0-9.55,4.283-9.55,9.549
			s4.285,9.549,9.55,9.549c5.266,0,9.55-4.283,9.55-9.549S41.095,26.183,35.829,26.183L35.829,26.183z"/>
	</g>
	<circle fill="#FFFFFF" cx="35.828" cy="35.732" r="8.377"/>
	<polygon fill="#2C4D86" points="35.664,33.885 31.743,33.885 31.743,37.795 35.664,37.795 35.664,40.312 38.376,38.072 
		41.084,35.832 38.376,33.592 35.664,31.349 	"/>
	<g opacity="0.32" enable-background="new    ">
		<g>
			<g>
				<defs>
					<circle id="SVGID_13_" cx="35.767" cy="35.746" r="9.547"/>
				</defs>
				<clipPath id="SVGID_14_">
					<use xlink:href="#SVGID_13_"  overflow="visible"/>
				</clipPath>
				
					<linearGradient id="SVGID_15_" gradientUnits="userSpaceOnUse" x1="-14.5425" y1="-684.4402" x2="-14.5425" y2="-665.586" gradientTransform="matrix(1 0 0 1 48.9971 709.457)">
					<stop  offset="0" style="stop-color:#FFFFFF"/>
					<stop  offset="1" style="stop-color:#E6E6E6"/>
				</linearGradient>
				<path clip-path="url(#SVGID_14_)" fill="url(#SVGID_15_)" d="M21.328,32.636c0,0,1.67,4.176,9.189,4.176
					c7.518,0,8.95-5.131,17.065-5.012c0,0-0.954-8.353-12.53-7.996C23.477,24.163,21.328,32.16,21.328,32.636z"/>
			</g>
		</g>
	</g>
</g>
<g>
	<g>
		<circle fill="#E6E6E6" cx="60.96" cy="35.81" r="10.053"/>
		<path fill="#C7C6C6" d="M60.96,46.365c-5.82,0-10.556-4.734-10.556-10.555s4.734-10.555,10.556-10.555
			c5.819,0,10.555,4.734,10.555,10.555S66.779,46.365,60.96,46.365L60.96,46.365z M60.96,26.261c-5.265,0-9.55,4.283-9.55,9.551
			c0,5.264,4.285,9.549,9.55,9.549c5.267,0,9.55-4.285,9.55-9.549C70.509,30.545,66.227,26.261,60.96,26.261L60.96,26.261z"/>
	</g>
	<circle fill="#FFFFFF" cx="60.959" cy="35.81" r="8.377"/>
	<polygon fill="#2C4D86" points="61.384,37.855 65.305,37.855 65.305,33.943 61.384,33.943 61.384,31.426 58.672,33.668 
		55.963,35.906 58.672,38.15 61.384,40.39 	"/>
	<g opacity="0.32" enable-background="new    ">
		<g>
			<g>
				<defs>
					<circle id="SVGID_16_" cx="60.898" cy="35.826" r="9.547"/>
				</defs>
				<clipPath id="SVGID_17_">
					<use xlink:href="#SVGID_16_"  overflow="visible"/>
				</clipPath>
				
					<linearGradient id="SVGID_18_" gradientUnits="userSpaceOnUse" x1="10.5884" y1="-684.3621" x2="10.5884" y2="-665.5092" gradientTransform="matrix(1 0 0 1 48.9971 709.457)">
					<stop  offset="0" style="stop-color:#FFFFFF"/>
					<stop  offset="1" style="stop-color:#E6E6E6"/>
				</linearGradient>
				<path clip-path="url(#SVGID_17_)" fill="url(#SVGID_18_)" d="M46.459,32.715c0,0,1.671,4.178,9.189,4.178
					c7.518,0,8.949-5.133,17.064-5.012c0,0-0.954-8.353-12.529-7.996C48.607,24.242,46.459,32.238,46.459,32.715z"/>
			</g>
		</g>
	</g>
</g>
<g>
	<g>
		<circle fill="#E6E6E6" cx="10.698" cy="35.797" r="10.053"/>
		<path fill="#C7C6C6" d="M10.698,46.351c-5.82,0-10.555-4.734-10.555-10.555s4.734-10.555,10.555-10.555
			c5.821,0,10.555,4.734,10.555,10.555S16.517,46.351,10.698,46.351L10.698,46.351z M10.698,26.246c-5.265,0-9.55,4.285-9.55,9.551
			s4.285,9.549,9.55,9.549c5.266,0,9.55-4.283,9.55-9.549S15.964,26.246,10.698,26.246L10.698,26.246z"/>
	</g>
	<circle fill="#FFFFFF" cx="10.697" cy="35.797" r="8.377"/>
	<g>
		<path fill="#2C4D86" d="M15.427,39.793h-2.966l-1.546-2.336l-1.591,2.336H6.416l2.986-4.057l-2.936-4.064h2.966l1.519,2.291
			l1.526-2.291h2.914l-2.943,4L15.427,39.793z"/>
	</g>
	<g opacity="0.32" enable-background="new    ">
		<g>
			<g>
				<defs>
					<circle id="SVGID_19_" cx="10.636" cy="35.811" r="9.546"/>
				</defs>
				<clipPath id="SVGID_20_">
					<use xlink:href="#SVGID_19_"  overflow="visible"/>
				</clipPath>
				
					<linearGradient id="SVGID_21_" gradientUnits="userSpaceOnUse" x1="-39.6743" y1="-684.3757" x2="-39.6743" y2="-665.5223" gradientTransform="matrix(1 0 0 1 48.9971 709.457)">
					<stop  offset="0" style="stop-color:#FFFFFF"/>
					<stop  offset="1" style="stop-color:#E6E6E6"/>
				</linearGradient>
				<path clip-path="url(#SVGID_20_)" fill="url(#SVGID_21_)" d="M-3.804,32.701c0,0,1.671,4.178,9.189,4.178
					s8.95-5.133,17.065-5.012c0,0-0.954-8.355-12.53-7.997C-1.655,24.229-3.804,32.224-3.804,32.701z"/>
			</g>
		</g>
	</g>
</g>
</svg>
